<?xml version="1.0" encoding="UTF-8"?> <svg xmlns="http://www.w3.org/2000/svg" width="277.375" height="49.844" viewBox="0 0 277.375 49.844"><defs><style> .cls-1 { fill: #24ba94; } .cls-1, .cls-2 { fill-rule: evenodd; } .cls-2 { fill: #204066; stroke: #204066; stroke-width: 1.568px; } </style></defs><path class="cls-1" d="M4.087,34.8l0.027,0.027,6.2,6.139a31.043,31.043,0,0,0,15.853,8.418,33.318,33.318,0,0,0,3.329.48l-0.056,0a31.979,31.979,0,0,0,5.964-.007h0l0.275-.028,0.147-.015,0.2-.023,0.23-.027,0.142-.018,0.318-.042,0.064-.009a31.176,31.176,0,0,0,16.435-7.542l0.006-.005q0.148-.131.295-0.265l0.037-.033,0.262-.242,0.058-.054,0.247-.235,0.064-.061q0.152-.147.3-0.3l9.793-9.705-1.272-1.287a4.259,4.259,0,0,0-2.137-1.233l-0.009.009a5.285,5.285,0,0,0-1.155-.116H56.246a4.413,4.413,0,0,0-2.408.617L48.265,34.8a22.672,22.672,0,0,1-31.734,0l-5.572-5.55H10.932l-0.027-.027H10.878L10.851,29.2l-0.027-.027H10.8l-0.028-.027H10.743l-0.028-.027H10.689l-0.028-.027-0.162-.08-0.054-.027H10.418l-0.108-.054H10.283l-0.027-.027H10.229L10.2,28.88H10.147l-0.027-.027H10.039V28.826H9.958V28.8H9.9L9.85,28.772H9.768l-0.026-.027H9.634V28.719H9.525l-0.054-.027H9.309l-0.027-.027H9.038V28.638H5.089a4.329,4.329,0,0,0-3.3,1.341L0.516,31.265ZM60.8,15.481l-0.027-.027-6.214-6.2A31.081,31.081,0,0,0,38.653.764,33.236,33.236,0,0,0,35.314.279l0.056,0a31.884,31.884,0,0,0-5.982.007h0l-0.276.028-0.147.015-0.2.023-0.231.027-0.143.018-0.319.042L28,0.446A31.188,31.188,0,0,0,11.516,8.057l-0.006.005q-0.149.132-.3,0.267l-0.037.033-0.263.245-0.058.054L10.609,8.9l-0.064.061q-0.153.148-.3,0.3L0.418,19.053l1.276,1.3A4.265,4.265,0,0,0,3.838,21.6l0.009-.009A5.27,5.27,0,0,0,5,21.7H8.478a4.406,4.406,0,0,0,2.415-.622l5.59-5.6a22.648,22.648,0,0,1,31.831,0l5.589,5.6h0.027l0.027,0.027h0.027l0.027,0.027,0.027,0.027h0.027l0.028,0.027h0.026l0.028,0.027h0.026L54.2,21.244l0.163,0.081,0.054,0.027h0.027l0.108,0.054h0.027l0.027,0.027h0.027l0.027,0.027h0.054l0.027,0.027h0.081v0.027h0.081v0.027h0.054l0.054,0.027H55.1L55.125,21.6h0.109v0.027h0.109L55.4,21.65h0.163l0.027,0.027H55.83V21.7h3.962a4.329,4.329,0,0,0,3.31-1.353l1.276-1.3Z" transform="translate(-0.406 -0.156)"></path><path id="Ptrica" class="cls-2" d="M33.185,18.229a7.031,7.031,0,1,1-7.044,7.031A7.038,7.038,0,0,1,33.185,18.229ZM69.646,5.052v7.129H90.923a5.315,5.315,0,0,1,4.273,1.6,5.723,5.723,0,0,1,1.364,3.836,6.546,6.546,0,0,1-.333,2.084,5.352,5.352,0,0,1-1,1.782,4.818,4.818,0,0,1-1.758,1.269,6.4,6.4,0,0,1-2.606.483H76.132q-3.4,0-4.91,1.51T69.707,29.7V45.833H76.86V31.092a0.909,0.909,0,0,1,1.03-1.027H90.62a14.607,14.607,0,0,0,6.092-1.148,11.83,11.83,0,0,0,4.091-2.96,11.108,11.108,0,0,0,2.273-4.108,15.752,15.752,0,0,0,.7-4.592,14.4,14.4,0,0,0-.757-4.652,10.31,10.31,0,0,0-2.364-3.9A11.616,11.616,0,0,0,96.56,6.049a15.94,15.94,0,0,0-5.94-1H69.646Zm38.067,0v7.129h11.941V45.833h7.213V12.181h11.942V5.052h-31.1Zm36.658,0v7.129H166.8a5.4,5.4,0,0,1,4.334,1.6,5.64,5.64,0,0,1,1.364,3.776,6.842,6.842,0,0,1-.333,2.115,5.288,5.288,0,0,1-1,1.813,4.816,4.816,0,0,1-1.757,1.269,6.4,6.4,0,0,1-2.607.483H150.857q-3.4,0-4.91,1.51T144.432,29.7V45.833h7.152V31.092a0.909,0.909,0,0,1,1.031-1.027h10.668l9.335,15.769h7.941l-9.517-16.312a11.553,11.553,0,0,0,4-1.933,11.11,11.11,0,0,0,2.667-2.93,12.633,12.633,0,0,0,1.515-3.565,15.489,15.489,0,0,0,.485-3.837,14.427,14.427,0,0,0-.757-4.652,10.31,10.31,0,0,0-2.364-3.9A11.616,11.616,0,0,0,172.5,6.049a15.938,15.938,0,0,0-5.94-1H144.371Zm41.833,0V45.833h7.153V5.052H186.2Zm31.393,0q-8.973,0-13.73,5.045t-4.758,15.376q0,10.272,4.758,15.316t13.73,5.045h7.46l3.135-7.129H217.6q-6,0-8.669-3.111t-2.667-10.12q0-7.069,2.7-10.18t8.638-3.111h20.524l3.135-7.129H217.6ZM252.2,13.027a2.1,2.1,0,0,1,2.061-1.39,1.993,1.993,0,0,1,2,1.39l12.427,32.806h7.94l-13.82-36.25a7.437,7.437,0,0,0-3.183-4.078,10.7,10.7,0,0,0-5.3-1.178,10.846,10.846,0,0,0-5.365,1.178,7.7,7.7,0,0,0-3.243,4.078l-14.366,36.25h7.88Z" transform="translate(-0.406 -0.156)"></path></svg> 